<?xml version="1.0" encoding="utf-8" standalone="no"?>
<!DOCTYPE svg PUBLIC "-//W3C//DTD SVG 1.1//EN"
  "http://www.w3.org/Graphics/SVG/1.1/DTD/svg11.dtd">
<svg height="345.6pt" version="1.1" viewBox="0 0 460.8 345.6" width="460.8pt" xmlns="http://www.w3.org/2000/svg" xmlns:xlink="http://www.w3.org/1999/xlink">
 <metadata>
  <rdf:RDF xmlns:cc="http://creativecommons.org/ns#" xmlns:dc="http://purl.org/dc/elements/1.1/" xmlns:rdf="http://www.w3.org/1999/02/22-rdf-syntax-ns#">
   <cc:Work>
    <dc:type rdf:resource="http://purl.org/dc/dcmitype/StillImage"/>
    <dc:date>2021-04-13T11:47:17.981476</dc:date>
    <dc:format>image/svg+xml</dc:format>
    <dc:creator>
     <cc:Agent>
      <dc:title>Matplotlib v3.4.1, https://matplotlib.org/</dc:title>
     </cc:Agent>
    </dc:creator>
   </cc:Work>
  </rdf:RDF>
 </metadata>
 <defs>
  <style type="text/css">*{stroke-linecap:butt;stroke-linejoin:round;}</style>
 </defs>
 <g id="figure_1">
  <g id="patch_1">
   <path d="M 0 345.6 
L 460.8 345.6 
L 460.8 0 
L 0 0 
z
" style="fill:#ffffff;"/>
  </g>
  <g id="axes_1">
   <g id="patch_2">
    <path d="M 57.6 307.584 
L 414.72 307.584 
L 414.72 41.472 
L 57.6 41.472 
z
" style="fill:#ffffff;"/>
   </g>
   <g id="matplotlib.axis_1">
    <g id="xtick_1">
     <g id="line2d_1">
      <defs>
       <path d="M 0 0 
L 0 3.5 
" id="m05710cbdfc" style="stroke:#000000;stroke-width:0.8;"/>
      </defs>
      <g>
       <use style="stroke:#000000;stroke-width:0.8;" x="73.832727" xlink:href="#m05710cbdfc" y="307.584"/>
      </g>
     </g>
     <g id="text_1">
      <!-- 20 -->
      <g transform="translate(68.832727 321.459)scale(0.1 -0.1)">
       <defs>
        <path d="M 300 250 
Q 325 625 650 925 
Q 975 1225 1475 1862 
Q 1975 2500 2125 2850 
Q 2275 3200 2237 3450 
Q 2200 3700 2000 3862 
Q 1800 4025 1537 4000 
Q 1275 3975 1037 3800 
Q 800 3625 675 3275 
L 200 3350 
Q 400 3925 712 4187 
Q 1025 4450 1450 4475 
Q 1700 4500 1900 4462 
Q 2100 4425 2312 4287 
Q 2525 4150 2662 3875 
Q 2800 3600 2762 3212 
Q 2725 2825 2375 2287 
Q 2025 1750 1025 600 
L 2825 600 
L 2825 150 
L 300 150 
L 300 250 
z
" id="SimHei-32" transform="scale(0.015625)"/>
        <path d="M 225 2537 
Q 250 3200 412 3587 
Q 575 3975 875 4225 
Q 1175 4475 1612 4475 
Q 2050 4475 2375 4112 
Q 2700 3750 2800 3200 
Q 2900 2650 2862 1937 
Q 2825 1225 2612 775 
Q 2400 325 1975 150 
Q 1550 -25 1125 187 
Q 700 400 525 750 
Q 350 1100 275 1487 
Q 200 1875 225 2537 
z
M 750 2687 
Q 675 2000 800 1462 
Q 925 925 1212 700 
Q 1500 475 1800 612 
Q 2100 750 2237 1162 
Q 2375 1575 2375 2062 
Q 2375 2550 2337 2950 
Q 2300 3350 2112 3675 
Q 1925 4000 1612 4012 
Q 1300 4025 1062 3700 
Q 825 3375 750 2687 
z
" id="SimHei-30" transform="scale(0.015625)"/>
       </defs>
       <use xlink:href="#SimHei-32"/>
       <use x="50" xlink:href="#SimHei-30"/>
      </g>
     </g>
    </g>
    <g id="xtick_2">
     <g id="line2d_2">
      <g>
       <use style="stroke:#000000;stroke-width:0.8;" x="138.763636" xlink:href="#m05710cbdfc" y="307.584"/>
      </g>
     </g>
     <g id="text_2">
      <!-- 21 -->
      <g transform="translate(133.763636 321.459)scale(0.1 -0.1)">
       <defs>
        <path d="M 1400 3600 
Q 1075 3275 575 2975 
L 575 3450 
Q 1200 3875 1600 4450 
L 1900 4450 
L 1900 150 
L 1400 150 
L 1400 3600 
z
" id="SimHei-31" transform="scale(0.015625)"/>
       </defs>
       <use xlink:href="#SimHei-32"/>
       <use x="50" xlink:href="#SimHei-31"/>
      </g>
     </g>
    </g>
    <g id="xtick_3">
     <g id="line2d_3">
      <g>
       <use style="stroke:#000000;stroke-width:0.8;" x="203.694545" xlink:href="#m05710cbdfc" y="307.584"/>
      </g>
     </g>
     <g id="text_3">
      <!-- 22 -->
      <g transform="translate(198.694545 321.459)scale(0.1 -0.1)">
       <use xlink:href="#SimHei-32"/>
       <use x="50" xlink:href="#SimHei-32"/>
      </g>
     </g>
    </g>
    <g id="xtick_4">
     <g id="line2d_4">
      <g>
       <use style="stroke:#000000;stroke-width:0.8;" x="268.625455" xlink:href="#m05710cbdfc" y="307.584"/>
      </g>
     </g>
     <g id="text_4">
      <!-- 23 -->
      <g transform="translate(263.625455 321.459)scale(0.1 -0.1)">
       <defs>
        <path d="M 250 1225 
L 700 1300 
Q 800 975 1025 762 
Q 1250 550 1587 562 
Q 1925 575 2125 837 
Q 2325 1100 2300 1437 
Q 2275 1775 2037 1962 
Q 1800 2150 1275 2225 
L 1275 2550 
Q 1800 2600 2037 2825 
Q 2275 3050 2250 3412 
Q 2225 3775 1925 3937 
Q 1625 4100 1287 3975 
Q 950 3850 750 3275 
L 300 3350 
Q 450 3800 712 4100 
Q 975 4400 1425 4450 
Q 1875 4500 2212 4337 
Q 2550 4175 2687 3837 
Q 2825 3500 2725 3100 
Q 2625 2700 2150 2400 
Q 2500 2250 2687 1950 
Q 2875 1650 2812 1162 
Q 2750 675 2375 375 
Q 2000 75 1525 87 
Q 1050 100 700 387 
Q 350 675 250 1225 
z
" id="SimHei-33" transform="scale(0.015625)"/>
       </defs>
       <use xlink:href="#SimHei-32"/>
       <use x="50" xlink:href="#SimHei-33"/>
      </g>
     </g>
    </g>
    <g id="xtick_5">
     <g id="line2d_5">
      <g>
       <use style="stroke:#000000;stroke-width:0.8;" x="333.556364" xlink:href="#m05710cbdfc" y="307.584"/>
      </g>
     </g>
     <g id="text_5">
      <!-- 24 -->
      <g transform="translate(328.556364 321.459)scale(0.1 -0.1)">
       <defs>
        <path d="M 2000 1100 
L 75 1100 
L 75 1525 
L 2100 4450 
L 2475 4450 
L 2475 1525 
L 3075 1525 
L 3075 1100 
L 2475 1100 
L 2475 150 
L 2000 150 
L 2000 1100 
z
M 2000 1525 
L 2000 3500 
L 600 1525 
L 2000 1525 
z
" id="SimHei-34" transform="scale(0.015625)"/>
       </defs>
       <use xlink:href="#SimHei-32"/>
       <use x="50" xlink:href="#SimHei-34"/>
      </g>
     </g>
    </g>
    <g id="xtick_6">
     <g id="line2d_6">
      <g>
       <use style="stroke:#000000;stroke-width:0.8;" x="398.487273" xlink:href="#m05710cbdfc" y="307.584"/>
      </g>
     </g>
     <g id="text_6">
      <!-- 25 -->
      <g transform="translate(393.487273 321.459)scale(0.1 -0.1)">
       <defs>
        <path d="M 550 1325 
Q 725 650 1150 575 
Q 1575 500 1837 662 
Q 2100 825 2212 1087 
Q 2325 1350 2312 1675 
Q 2300 2000 2137 2225 
Q 1975 2450 1725 2525 
Q 1475 2600 1162 2525 
Q 850 2450 650 2175 
L 225 2225 
Q 275 2375 700 4375 
L 2675 4375 
L 2675 3925 
L 1075 3925 
Q 950 3250 825 2850 
Q 1200 3025 1525 3012 
Q 1850 3000 2150 2862 
Q 2450 2725 2587 2487 
Q 2725 2250 2787 2012 
Q 2850 1775 2837 1500 
Q 2825 1225 2725 937 
Q 2625 650 2425 462 
Q 2225 275 1937 162 
Q 1650 50 1275 75 
Q 900 100 562 350 
Q 225 600 100 1200 
L 550 1325 
z
" id="SimHei-35" transform="scale(0.015625)"/>
       </defs>
       <use xlink:href="#SimHei-32"/>
       <use x="50" xlink:href="#SimHei-35"/>
      </g>
     </g>
    </g>
    <g id="text_7">
     <!-- X轴 -->
     <g transform="translate(219.66 344.068375)scale(0.22 -0.22)">
      <defs>
       <path d="M 3000 125 
L 2400 125 
L 1550 1875 
L 700 125 
L 100 125 
L 1275 2375 
L 225 4400 
L 825 4400 
L 1550 2850 
L 2275 4400 
L 2875 4400 
L 1825 2375 
L 3000 125 
z
" id="SimHei-58" transform="scale(0.015625)"/>
       <path d="M 4200 3900 
Q 4200 4775 4175 5175 
L 4700 5175 
Q 4675 4800 4675 3900 
L 5950 3900 
Q 5925 3025 5925 1675 
Q 5925 325 5950 -525 
L 5450 -525 
L 5450 100 
L 3425 100 
L 3425 -575 
L 2950 -575 
Q 2975 325 2975 1675 
Q 2975 3025 2950 3900 
L 4200 3900 
z
M 2725 950 
Q 2250 900 2075 875 
Q 2075 200 2100 -600 
L 1575 -600 
Q 1600 200 1600 800 
Q 700 650 450 575 
Q 400 800 275 1075 
Q 700 1100 1600 1250 
L 1600 2075 
L 1100 2075 
Q 850 2075 525 2000 
L 300 2475 
Q 525 2600 700 3025 
Q 875 3450 1025 3925 
Q 700 3925 325 3900 
L 325 4350 
Q 700 4325 1125 4325 
Q 1300 4825 1375 5250 
Q 1625 5150 1925 5100 
Q 1825 4925 1600 4325 
Q 2175 4325 2750 4350 
L 2750 3900 
Q 2200 3925 1475 3925 
Q 1150 3000 925 2475 
L 1600 2475 
Q 1600 3050 1575 3400 
L 2100 3400 
Q 2075 3100 2075 2475 
Q 2425 2475 2625 2500 
L 2625 2050 
Q 2450 2075 2075 2075 
L 2075 1300 
L 2775 1400 
Q 2725 1175 2725 950 
z
M 4200 525 
L 4200 1850 
L 3425 1850 
L 3425 525 
L 4200 525 
z
M 5450 525 
L 5450 1850 
L 4675 1850 
L 4675 525 
L 5450 525 
z
M 4200 2250 
L 4200 3475 
L 3425 3475 
L 3425 2250 
L 4200 2250 
z
M 5450 2250 
L 5450 3475 
L 4675 3475 
L 4675 2250 
L 5450 2250 
z
" id="SimHei-8f74" transform="scale(0.015625)"/>
      </defs>
      <use xlink:href="#SimHei-58"/>
      <use x="50" xlink:href="#SimHei-8f74"/>
     </g>
    </g>
   </g>
   <g id="matplotlib.axis_2">
    <g id="ytick_1">
     <g id="line2d_7">
      <defs>
       <path d="M 0 0 
L -3.5 0 
" id="m361520449d" style="stroke:#000000;stroke-width:0.8;"/>
      </defs>
      <g>
       <use style="stroke:#000000;stroke-width:0.8;" x="57.6" xlink:href="#m361520449d" y="295.515833"/>
      </g>
     </g>
     <g id="text_8">
      <!-- −1.00 -->
      <g transform="translate(20.6 298.953333)scale(0.1 -0.1)">
       <defs>
        <path d="M 5600 -325 
L 700 -325 
L 700 4825 
L 5600 4825 
L 5600 -325 
z
M 5400 4650 
L 875 4650 
L 875 -150 
L 5400 -150 
L 5400 4650 
z
" id="SimHei-2212" transform="scale(0.015625)"/>
        <path d="M 1075 125 
L 500 125 
L 500 675 
L 1075 675 
L 1075 125 
z
" id="SimHei-2e" transform="scale(0.015625)"/>
       </defs>
       <use xlink:href="#SimHei-2212"/>
       <use x="100" xlink:href="#SimHei-31"/>
       <use x="150" xlink:href="#SimHei-2e"/>
       <use x="200" xlink:href="#SimHei-30"/>
       <use x="250" xlink:href="#SimHei-30"/>
      </g>
     </g>
    </g>
    <g id="ytick_2">
     <g id="line2d_8">
      <g>
       <use style="stroke:#000000;stroke-width:0.8;" x="57.6" xlink:href="#m361520449d" y="265.27235"/>
      </g>
     </g>
     <g id="text_9">
      <!-- −0.75 -->
      <g transform="translate(20.6 268.70985)scale(0.1 -0.1)">
       <defs>
        <path d="M 850 150 
Q 1300 2050 2425 3925 
L 275 3925 
L 275 4375 
L 2950 4375 
L 2950 3950 
Q 1775 2050 1400 150 
L 850 150 
z
" id="SimHei-37" transform="scale(0.015625)"/>
       </defs>
       <use xlink:href="#SimHei-2212"/>
       <use x="100" xlink:href="#SimHei-30"/>
       <use x="150" xlink:href="#SimHei-2e"/>
       <use x="200" xlink:href="#SimHei-37"/>
       <use x="250" xlink:href="#SimHei-35"/>
      </g>
     </g>
    </g>
    <g id="ytick_3">
     <g id="line2d_9">
      <g>
       <use style="stroke:#000000;stroke-width:0.8;" x="57.6" xlink:href="#m361520449d" y="235.028868"/>
      </g>
     </g>
     <g id="text_10">
      <!-- −0.50 -->
      <g transform="translate(20.6 238.466368)scale(0.1 -0.1)">
       <use xlink:href="#SimHei-2212"/>
       <use x="100" xlink:href="#SimHei-30"/>
       <use x="150" xlink:href="#SimHei-2e"/>
       <use x="200" xlink:href="#SimHei-35"/>
       <use x="250" xlink:href="#SimHei-30"/>
      </g>
     </g>
    </g>
    <g id="ytick_4">
     <g id="line2d_10">
      <g>
       <use style="stroke:#000000;stroke-width:0.8;" x="57.6" xlink:href="#m361520449d" y="204.785385"/>
      </g>
     </g>
     <g id="text_11">
      <!-- −0.25 -->
      <g transform="translate(20.6 208.222885)scale(0.1 -0.1)">
       <use xlink:href="#SimHei-2212"/>
       <use x="100" xlink:href="#SimHei-30"/>
       <use x="150" xlink:href="#SimHei-2e"/>
       <use x="200" xlink:href="#SimHei-32"/>
       <use x="250" xlink:href="#SimHei-35"/>
      </g>
     </g>
    </g>
    <g id="ytick_5">
     <g id="line2d_11">
      <g>
       <use style="stroke:#000000;stroke-width:0.8;" x="57.6" xlink:href="#m361520449d" y="174.541902"/>
      </g>
     </g>
     <g id="text_12">
      <!-- 0.00 -->
      <g transform="translate(30.6 177.979402)scale(0.1 -0.1)">
       <use xlink:href="#SimHei-30"/>
       <use x="50" xlink:href="#SimHei-2e"/>
       <use x="100" xlink:href="#SimHei-30"/>
       <use x="150" xlink:href="#SimHei-30"/>
      </g>
     </g>
    </g>
    <g id="ytick_6">
     <g id="line2d_12">
      <g>
       <use style="stroke:#000000;stroke-width:0.8;" x="57.6" xlink:href="#m361520449d" y="144.298419"/>
      </g>
     </g>
     <g id="text_13">
      <!-- 0.25 -->
      <g transform="translate(30.6 147.735919)scale(0.1 -0.1)">
       <use xlink:href="#SimHei-30"/>
       <use x="50" xlink:href="#SimHei-2e"/>
       <use x="100" xlink:href="#SimHei-32"/>
       <use x="150" xlink:href="#SimHei-35"/>
      </g>
     </g>
    </g>
    <g id="ytick_7">
     <g id="line2d_13">
      <g>
       <use style="stroke:#000000;stroke-width:0.8;" x="57.6" xlink:href="#m361520449d" y="114.054936"/>
      </g>
     </g>
     <g id="text_14">
      <!-- 0.50 -->
      <g transform="translate(30.6 117.492436)scale(0.1 -0.1)">
       <use xlink:href="#SimHei-30"/>
       <use x="50" xlink:href="#SimHei-2e"/>
       <use x="100" xlink:href="#SimHei-35"/>
       <use x="150" xlink:href="#SimHei-30"/>
      </g>
     </g>
    </g>
    <g id="ytick_8">
     <g id="line2d_14">
      <g>
       <use style="stroke:#000000;stroke-width:0.8;" x="57.6" xlink:href="#m361520449d" y="83.811453"/>
      </g>
     </g>
     <g id="text_15">
      <!-- 0.75 -->
      <g transform="translate(30.6 87.248953)scale(0.1 -0.1)">
       <use xlink:href="#SimHei-30"/>
       <use x="50" xlink:href="#SimHei-2e"/>
       <use x="100" xlink:href="#SimHei-37"/>
       <use x="150" xlink:href="#SimHei-35"/>
      </g>
     </g>
    </g>
    <g id="ytick_9">
     <g id="line2d_15">
      <g>
       <use style="stroke:#000000;stroke-width:0.8;" x="57.6" xlink:href="#m361520449d" y="53.567971"/>
      </g>
     </g>
     <g id="text_16">
      <!-- 1.00 -->
      <g transform="translate(30.6 57.005471)scale(0.1 -0.1)">
       <use xlink:href="#SimHei-31"/>
       <use x="50" xlink:href="#SimHei-2e"/>
       <use x="100" xlink:href="#SimHei-30"/>
       <use x="150" xlink:href="#SimHei-30"/>
      </g>
     </g>
    </g>
    <g id="text_17">
     <!-- Y轴 -->
     <g transform="translate(13.85 191.028)rotate(-90)scale(0.22 -0.22)">
      <defs>
       <path d="M 3025 4400 
L 1850 2050 
L 1850 125 
L 1275 125 
L 1275 2050 
L 100 4400 
L 675 4400 
L 1550 2575 
L 1575 2575 
L 2450 4400 
L 3025 4400 
z
" id="SimHei-59" transform="scale(0.015625)"/>
      </defs>
      <use xlink:href="#SimHei-59"/>
      <use x="50" xlink:href="#SimHei-8f74"/>
     </g>
    </g>
   </g>
   <g id="line2d_16">
    <path clip-path="url(#pb2193c0236)" d="M 73.832727 125.174611 
L 77.112066 130.813096 
L 80.391405 136.5631 
L 83.670744 142.409957 
L 86.950083 148.338759 
L 90.229421 154.334384 
L 93.50876 160.381542 
L 96.788099 166.464813 
L 100.067438 172.568681 
L 103.346777 178.677582 
L 106.626116 184.775937 
L 109.905455 190.848192 
L 113.184793 196.878862 
L 116.464132 202.852569 
L 119.743471 208.754077 
L 123.02281 214.568336 
L 126.302149 220.28052 
L 129.581488 225.876059 
L 132.860826 231.340686 
L 136.140165 236.660463 
L 139.419504 241.821825 
L 142.698843 246.811608 
L 145.978182 251.617088 
L 149.257521 256.226009 
L 152.53686 260.626617 
L 155.816198 264.807691 
L 159.095537 268.758568 
L 162.374876 272.469171 
L 165.654215 275.930039 
L 168.933554 279.132344 
L 172.212893 282.067922 
L 175.492231 284.729284 
L 178.77157 287.109645 
L 182.050909 289.202933 
L 185.330248 291.003811 
L 188.609587 292.507686 
L 191.888926 293.710722 
L 195.168264 294.609851 
L 198.447603 295.202781 
L 201.726942 295.488 
L 205.006281 295.46478 
L 208.28562 295.13318 
L 211.564959 294.494046 
L 214.844298 293.549007 
L 218.123636 292.300475 
L 221.402975 290.751633 
L 224.682314 288.906431 
L 227.961653 286.769574 
L 231.240992 284.346512 
L 234.520331 281.643424 
L 237.799669 278.667204 
L 241.079008 275.425442 
L 244.358347 271.926405 
L 247.637686 268.179016 
L 250.917025 264.192833 
L 254.196364 259.978019 
L 257.475702 255.545325 
L 260.755041 250.906055 
L 264.03438 246.07204 
L 267.313719 241.055607 
L 270.593058 235.869549 
L 273.872397 230.527093 
L 277.151736 225.041862 
L 280.431074 219.427845 
L 283.710413 213.69936 
L 286.989752 207.871014 
L 290.269091 201.957672 
L 293.54843 195.974413 
L 296.827769 189.936497 
L 300.107107 183.859322 
L 303.386446 177.758385 
L 306.665785 171.649245 
L 309.945124 165.547482 
L 313.224463 159.468657 
L 316.503802 153.428272 
L 319.78314 147.441732 
L 323.062479 141.524302 
L 326.341818 135.691075 
L 329.621157 129.956926 
L 332.900496 124.336478 
L 336.179835 118.844065 
L 339.459174 113.493694 
L 342.738512 108.299009 
L 346.017851 103.273258 
L 349.29719 98.429257 
L 352.576529 93.77936 
L 355.855868 89.335425 
L 359.135207 85.108785 
L 362.414545 81.11022 
L 365.693884 77.349925 
L 368.973223 73.837491 
L 372.252562 70.581875 
L 375.531901 67.591381 
L 378.81124 64.873633 
L 382.090579 62.435563 
L 385.369917 60.283389 
L 388.649256 58.422599 
L 391.928595 56.857938 
L 395.207934 55.593397 
L 398.487273 54.632201 
" style="fill:none;stroke:#0000ff;stroke-linecap:square;"/>
   </g>
   <g id="line2d_17">
    <path clip-path="url(#pb2193c0236)" d="M 73.832727 74.086335 
L 77.112066 124.399785 
L 80.391405 228.231001 
L 83.670744 56.961043 
L 86.950083 84.463009 
L 90.229421 136.979439 
L 93.50876 262.684102 
L 96.788099 100.114396 
L 100.067438 201.056192 
L 103.346777 243.077086 
L 106.626116 57.715082 
L 109.905455 64.942049 
L 113.184793 98.311456 
L 116.464132 225.71304 
L 119.743471 93.055284 
L 123.02281 70.158816 
L 126.302149 155.03615 
L 129.581488 82.463892 
L 132.860826 295.026006 
L 136.140165 233.474618 
L 139.419504 132.154687 
L 142.698843 245.277653 
L 145.978182 244.76351 
L 149.257521 58.376919 
L 152.53686 225.91699 
L 155.816198 116.264345 
L 159.095537 286.998345 
L 162.374876 294.849901 
L 165.654215 155.138934 
L 168.933554 259.036428 
L 172.212893 163.925322 
L 175.492231 126.300151 
L 178.77157 110.829425 
L 182.050909 293.806931 
L 185.330248 60.8892 
L 188.609587 118.094905 
L 191.888926 156.203707 
L 195.168264 266.276468 
L 198.447603 232.425582 
L 201.726942 295.444785 
L 205.006281 122.426204 
L 208.28562 234.523908 
L 211.564959 200.779841 
L 214.844298 286.104895 
L 218.123636 119.409508 
L 221.402975 269.615791 
L 224.682314 117.423049 
L 227.961653 136.553456 
L 231.240992 293.339458 
L 234.520331 274.007297 
L 237.799669 183.4803 
L 241.079008 84.706244 
L 244.358347 108.350897 
L 247.637686 154.529722 
L 250.917025 108.453865 
L 254.196364 291.289691 
L 257.475702 202.581603 
L 260.755041 228.099217 
L 264.03438 220.946847 
L 267.313719 169.123329 
L 270.593058 200.77247 
L 273.872397 207.769443 
L 277.151736 255.915779 
L 280.431074 225.469984 
L 283.710413 275.431651 
L 286.989752 294.60858 
L 290.269091 295.012601 
L 293.54843 67.962636 
L 296.827769 104.339919 
L 300.107107 197.374556 
L 303.386446 235.472016 
L 306.665785 129.99051 
L 309.945124 290.494111 
L 313.224463 95.514166 
L 316.503802 271.673321 
L 319.78314 161.274465 
L 323.062479 267.768859 
L 326.341818 285.589294 
L 329.621157 226.665254 
L 332.900496 53.568 
L 336.179835 134.793635 
L 339.459174 78.355121 
L 342.738512 56.645498 
L 346.017851 144.485043 
L 349.29719 76.53383 
L 352.576529 273.194487 
L 355.855868 243.565289 
L 359.135207 53.627011 
L 362.414545 290.669146 
L 365.693884 214.587195 
L 368.973223 294.018099 
L 372.252562 86.430829 
L 375.531901 291.942704 
L 378.81124 245.968931 
L 382.090579 144.178957 
L 385.369917 100.195352 
L 388.649256 278.567024 
L 391.928595 289.030536 
L 395.207934 246.393672 
L 398.487273 267.421516 
" style="fill:none;stroke:#008000;stroke-dasharray:3.7,1.6;stroke-dashoffset:0;"/>
   </g>
   <g id="patch_3">
    <path d="M 57.6 307.584 
L 57.6 41.472 
" style="fill:none;stroke:#000000;stroke-linecap:square;stroke-linejoin:miter;stroke-width:0.8;"/>
   </g>
   <g id="patch_4">
    <path d="M 414.72 307.584 
L 414.72 41.472 
" style="fill:none;stroke:#000000;stroke-linecap:square;stroke-linejoin:miter;stroke-width:0.8;"/>
   </g>
   <g id="patch_5">
    <path d="M 57.6 307.584 
L 414.72 307.584 
" style="fill:none;stroke:#000000;stroke-linecap:square;stroke-linejoin:miter;stroke-width:0.8;"/>
   </g>
   <g id="patch_6">
    <path d="M 57.6 41.472 
L 414.72 41.472 
" style="fill:none;stroke:#000000;stroke-linecap:square;stroke-linejoin:miter;stroke-width:0.8;"/>
   </g>
   <g id="text_18">
    <!-- 使用 matplotlib绘图（制图人：于彬磊） -->
    <g transform="translate(125.16 35.472)scale(0.12 -0.12)">
     <defs>
      <path d="M 3700 4375 
Q 3700 4925 3675 5250 
Q 4000 5200 4250 5175 
Q 4175 4925 4175 4375 
L 4975 4375 
Q 5525 4375 5975 4400 
L 5975 3950 
Q 5500 3975 4975 3975 
L 4175 3975 
L 4175 3425 
L 5700 3425 
Q 5675 3075 5675 2675 
Q 5675 2300 5700 1900 
L 4150 1900 
Q 4100 1100 3875 600 
Q 4575 -25 6100 -50 
Q 5925 -175 5825 -525 
Q 4500 -475 3575 225 
Q 3000 -375 2175 -675 
Q 2150 -500 1825 -300 
Q 2775 -25 3225 500 
Q 2800 925 2325 1500 
Q 2475 1575 2675 1775 
Q 3075 1225 3500 900 
Q 3650 1325 3675 1900 
L 2200 1900 
Q 2225 2300 2225 2700 
Q 2225 3100 2200 3425 
L 3700 3425 
L 3700 3975 
L 2875 3975 
Q 2350 3975 1975 3950 
L 1975 4400 
Q 2325 4375 2850 4375 
L 3700 4375 
z
M 1925 4975 
Q 1800 4825 1525 4050 
L 1525 600 
Q 1525 50 1550 -575 
L 1050 -575 
Q 1075 25 1075 550 
L 1075 3200 
Q 725 2475 600 2250 
Q 475 2475 225 2625 
Q 500 3000 887 3812 
Q 1275 4625 1350 5200 
L 1925 4975 
z
M 5200 2300 
L 5200 3050 
L 4175 3050 
L 4175 2300 
L 5200 2300 
z
M 3700 2300 
L 3700 3050 
L 2700 3050 
L 2700 2300 
L 3700 2300 
z
" id="SimHei-4f7f" transform="scale(0.015625)"/>
      <path d="M 350 -300 
Q 650 125 812 600 
Q 975 1075 1012 1550 
Q 1050 2025 1050 3150 
Q 1050 4275 1025 4950 
L 5500 4950 
Q 5475 4225 5475 3650 
L 5475 375 
Q 5475 -150 5175 -275 
Q 4875 -400 4475 -450 
Q 4425 -75 4300 125 
Q 4800 100 4887 162 
Q 4975 225 4975 400 
L 4975 1650 
L 3450 1650 
L 3450 675 
Q 3450 125 3475 -325 
L 2925 -325 
Q 2950 100 2950 650 
L 2950 1650 
L 1525 1650 
Q 1425 575 850 -525 
Q 575 -350 350 -300 
z
M 4975 3475 
L 4975 4550 
L 3450 4550 
L 3450 3475 
L 4975 3475 
z
M 4975 2050 
L 4975 3100 
L 3450 3100 
L 3450 2050 
L 4975 2050 
z
M 2950 3475 
L 2950 4550 
L 1525 4550 
L 1525 3475 
L 2950 3475 
z
M 2950 2050 
L 2950 3100 
L 1525 3100 
L 1525 2050 
L 2950 2050 
z
" id="SimHei-7528" transform="scale(0.015625)"/>
      <path id="SimHei-20" transform="scale(0.015625)"/>
      <path d="M 3050 125 
L 2550 125 
L 2550 2150 
Q 2550 2300 2500 2400 
Q 2450 2500 2300 2500 
Q 2125 2500 1975 2312 
Q 1825 2125 1825 1825 
L 1825 125 
L 1325 125 
L 1325 2150 
Q 1325 2300 1275 2400 
Q 1225 2500 1075 2500 
Q 900 2500 750 2312 
Q 600 2125 600 1825 
L 600 125 
L 100 125 
L 100 2925 
L 600 2925 
L 600 2550 
Q 725 2750 900 2862 
Q 1075 2975 1275 2975 
Q 1475 2975 1612 2862 
Q 1750 2750 1800 2550 
Q 1925 2750 2087 2862 
Q 2250 2975 2450 2975 
Q 2750 2975 2900 2812 
Q 3050 2650 3050 2350 
L 3050 125 
z
" id="SimHei-6d" transform="scale(0.015625)"/>
      <path d="M 2875 125 
L 2275 125 
Q 2225 175 2200 262 
Q 2175 350 2175 475 
Q 2000 275 1750 175 
Q 1500 75 1225 75 
Q 825 75 550 275 
Q 275 475 275 850 
Q 275 1225 525 1450 
Q 775 1675 1300 1750 
Q 1650 1800 1912 1875 
Q 2175 1950 2175 2075 
Q 2175 2225 2062 2375 
Q 1950 2525 1575 2525 
Q 1275 2525 1137 2412 
Q 1000 2300 950 2100 
L 400 2100 
Q 450 2500 762 2737 
Q 1075 2975 1575 2975 
Q 2125 2975 2400 2725 
Q 2675 2475 2675 2025 
L 2675 650 
Q 2675 500 2725 375 
Q 2775 250 2875 125 
z
M 2175 1050 
L 2175 1550 
Q 2025 1500 1887 1462 
Q 1750 1425 1425 1375 
Q 1050 1325 937 1200 
Q 825 1075 825 900 
Q 825 750 937 637 
Q 1050 525 1275 525 
Q 1500 525 1762 650 
Q 2025 775 2175 1050 
z
" id="SimHei-61" transform="scale(0.015625)"/>
      <path d="M 2750 200 
Q 2625 150 2462 112 
Q 2300 75 2025 75 
Q 1575 75 1300 325 
Q 1025 575 1025 1025 
L 1025 2525 
L 175 2525 
L 175 2925 
L 1025 2925 
L 1025 3900 
L 1525 3900 
L 1525 2925 
L 2550 2925 
L 2550 2525 
L 1525 2525 
L 1525 1000 
Q 1525 800 1625 662 
Q 1725 525 2000 525 
Q 2275 525 2450 575 
Q 2625 625 2750 700 
L 2750 200 
z
" id="SimHei-74" transform="scale(0.015625)"/>
      <path d="M 2825 1525 
Q 2825 800 2475 425 
Q 2125 50 1625 50 
Q 1350 50 1150 162 
Q 950 275 800 500 
L 800 -800 
L 300 -800 
L 300 2925 
L 800 2925 
L 800 2550 
Q 950 2775 1150 2875 
Q 1350 2975 1625 2975 
Q 2125 2975 2475 2612 
Q 2825 2250 2825 1525 
z
M 2275 1525 
Q 2275 2000 2087 2262 
Q 1900 2525 1525 2525 
Q 1225 2525 1012 2262 
Q 800 2000 800 1525 
Q 800 1050 1012 775 
Q 1225 500 1525 500 
Q 1900 500 2087 775 
Q 2275 1050 2275 1525 
z
" id="SimHei-70" transform="scale(0.015625)"/>
      <path d="M 1825 125 
L 1325 125 
L 1325 4400 
L 1825 4400 
L 1825 125 
z
" id="SimHei-6c" transform="scale(0.015625)"/>
      <path d="M 2925 1525 
Q 2925 875 2525 475 
Q 2125 75 1575 75 
Q 1025 75 625 475 
Q 225 875 225 1525 
Q 225 2175 625 2575 
Q 1025 2975 1575 2975 
Q 2125 2975 2525 2575 
Q 2925 2175 2925 1525 
z
M 2375 1525 
Q 2375 2025 2125 2275 
Q 1875 2525 1575 2525 
Q 1275 2525 1025 2275 
Q 775 2025 775 1525 
Q 775 1025 1025 775 
Q 1275 525 1575 525 
Q 1875 525 2125 775 
Q 2375 1025 2375 1525 
z
" id="SimHei-6f" transform="scale(0.015625)"/>
      <path d="M 1800 3725 
L 1300 3725 
L 1300 4375 
L 1800 4375 
L 1800 3725 
z
M 1800 125 
L 1300 125 
L 1300 2925 
L 1800 2925 
L 1800 125 
z
" id="SimHei-69" transform="scale(0.015625)"/>
      <path d="M 2825 1525 
Q 2825 800 2475 437 
Q 2125 75 1625 75 
Q 1350 75 1150 175 
Q 950 275 800 500 
L 800 125 
L 300 125 
L 300 4400 
L 800 4400 
L 800 2550 
Q 950 2775 1150 2887 
Q 1350 3000 1625 3000 
Q 2125 3000 2475 2625 
Q 2825 2250 2825 1525 
z
M 2275 1525 
Q 2275 2000 2087 2275 
Q 1900 2550 1525 2550 
Q 1225 2550 1012 2275 
Q 800 2000 800 1525 
Q 800 1050 1012 787 
Q 1225 525 1525 525 
Q 1900 525 2087 787 
Q 2275 1050 2275 1525 
z
" id="SimHei-62" transform="scale(0.015625)"/>
      <path d="M 5150 1950 
Q 5425 1950 5800 1975 
L 5800 1500 
Q 5450 1525 5300 1525 
L 4325 1525 
Q 4100 1150 3862 775 
Q 3625 400 3375 100 
Q 3850 100 4950 200 
L 4575 950 
Q 4725 1050 5000 1175 
Q 5225 725 5775 -350 
Q 5525 -475 5300 -600 
Q 5200 -350 5100 -125 
Q 3925 -225 3662 -262 
Q 3400 -300 2875 -450 
Q 2775 -100 2675 125 
Q 3025 275 3300 712 
Q 3575 1150 3775 1525 
L 3375 1525 
Q 3025 1525 2725 1500 
L 2725 1975 
Q 3000 1950 3375 1950 
L 5150 1950 
z
M 1925 4825 
Q 1725 4600 1525 4162 
Q 1325 3725 900 3075 
L 1725 3075 
Q 1950 3550 2050 3900 
Q 2300 3725 2575 3625 
Q 2450 3500 2200 3050 
Q 1950 2600 1737 2275 
Q 1525 1950 1250 1550 
Q 1975 1650 2375 1700 
Q 2325 1525 2350 1250 
Q 2125 1250 1600 1187 
Q 1075 1125 675 1050 
Q 625 1325 500 1550 
Q 825 1700 1050 2012 
Q 1275 2325 1500 2725 
Q 1350 2725 1025 2700 
Q 700 2675 375 2600 
Q 300 2875 225 3125 
Q 550 3275 850 3850 
Q 1150 4425 1325 5075 
Q 1625 4900 1925 4825 
z
M 4475 3075 
Q 4825 3075 5100 3100 
Q 4875 3300 4725 3500 
Q 4375 3975 4125 4425 
Q 3825 3725 3500 3325 
Q 3175 2925 2725 2375 
Q 2450 2625 2300 2725 
Q 2700 3025 2950 3337 
Q 3200 3650 3387 3975 
Q 3575 4300 3700 4612 
Q 3825 4925 3900 5225 
Q 4125 5150 4475 5050 
Q 4400 4925 4375 4800 
Q 4750 4050 5200 3675 
Q 5650 3300 6200 3075 
Q 6000 2875 5825 2575 
Q 5425 2825 5125 3075 
L 5125 2625 
Q 4900 2650 4475 2650 
L 3850 2650 
Q 3625 2650 3350 2625 
L 3350 3100 
Q 3625 3075 3850 3075 
L 4475 3075 
z
M 2425 700 
Q 2375 475 2375 250 
Q 2000 175 1487 62 
Q 975 -50 500 -200 
Q 350 100 275 350 
Q 575 400 812 425 
Q 1050 450 1300 487 
Q 1550 525 1825 562 
Q 2100 600 2425 700 
z
" id="SimHei-7ed8" transform="scale(0.015625)"/>
      <path d="M 5800 4975 
Q 5775 4350 5775 3600 
L 5775 925 
Q 5775 150 5800 -600 
L 5300 -600 
L 5300 -275 
L 1125 -275 
L 1125 -650 
L 625 -650 
Q 650 125 650 950 
L 650 3600 
Q 650 4325 625 4975 
L 5800 4975 
z
M 5300 150 
L 5300 4575 
L 1125 4575 
L 1125 150 
L 5300 150 
z
M 3225 4250 
Q 3075 4100 2950 3925 
L 4625 3925 
Q 4525 3700 4300 3375 
Q 4075 3050 3600 2600 
Q 4350 2225 5075 2150 
Q 4900 1925 4775 1675 
Q 3850 1950 3225 2350 
Q 2500 1875 1675 1650 
Q 1600 1875 1400 2075 
Q 2200 2200 2875 2600 
Q 2525 2925 2375 3150 
Q 2150 2900 1900 2650 
Q 1725 2850 1525 2950 
Q 1950 3300 2250 3737 
Q 2550 4175 2675 4475 
Q 2925 4350 3225 4250 
z
M 2450 1275 
Q 3550 950 4100 725 
Q 3975 525 3850 300 
Q 2825 725 2275 850 
Q 2375 1050 2450 1275 
z
M 2925 2050 
Q 3775 1700 4075 1600 
Q 3950 1400 3850 1150 
Q 3000 1550 2700 1650 
Q 2825 1825 2925 2050 
z
M 2625 3450 
Q 3000 3025 3275 2850 
Q 3600 3100 3875 3525 
L 2675 3525 
L 2625 3450 
z
" id="SimHei-56fe" transform="scale(0.015625)"/>
      <path d="M 5425 5100 
L 5700 4775 
Q 4275 3725 4325 2350 
Q 4350 1025 5675 50 
L 5400 -275 
Q 3875 825 3925 2500 
Q 3925 3875 5425 5100 
z
" id="SimHei-ff08" transform="scale(0.015625)"/>
      <path d="M 1325 4625 
Q 1175 4375 1075 4150 
L 1800 4150 
Q 1800 4775 1775 5125 
L 2350 5125 
Q 2325 4800 2325 4150 
L 2700 4150 
Q 3200 4150 3600 4175 
L 3600 3725 
Q 3250 3750 2725 3750 
L 2325 3750 
L 2325 3025 
L 2950 3025 
Q 3325 3025 3750 3050 
L 3750 2625 
L 2325 2625 
L 2325 1950 
L 3675 1950 
Q 3650 1650 3637 1125 
Q 3625 600 3612 412 
Q 3600 225 3400 137 
Q 3200 50 2825 -25 
Q 2775 250 2650 550 
Q 2975 550 3050 587 
Q 3125 625 3125 975 
L 3125 1550 
L 2325 1550 
L 2325 175 
Q 2325 -250 2350 -550 
L 1775 -550 
Q 1800 -75 1800 175 
L 1800 1550 
L 1025 1550 
L 1025 -25 
L 500 -25 
Q 525 300 525 650 
L 525 1200 
Q 525 1675 500 1950 
L 1800 1950 
L 1800 2625 
L 1000 2625 
Q 550 2625 225 2600 
L 225 3050 
Q 550 3025 1000 3025 
L 1800 3025 
L 1800 3750 
L 925 3750 
Q 800 3450 675 3250 
Q 450 3400 225 3500 
Q 400 3750 525 4075 
Q 650 4400 750 4800 
Q 1000 4700 1325 4625 
z
M 5875 5075 
Q 5850 4825 5850 4350 
L 5850 25 
Q 5850 -325 5587 -412 
Q 5325 -500 4825 -575 
Q 4750 -250 4625 0 
Q 5050 0 5200 25 
Q 5350 50 5350 350 
L 5350 4350 
Q 5350 4775 5325 5075 
L 5875 5075 
z
M 4675 4325 
Q 4650 3975 4650 3700 
L 4650 1625 
Q 4650 1275 4675 775 
L 4125 775 
Q 4175 1200 4175 1625 
L 4175 3700 
Q 4175 3950 4125 4325 
L 4675 4325 
z
" id="SimHei-5236" transform="scale(0.015625)"/>
      <path d="M 350 -150 
Q 1325 325 1875 1025 
Q 2425 1725 2637 2462 
Q 2850 3200 2875 3837 
Q 2900 4475 2850 5175 
Q 3125 5150 3475 5125 
Q 3400 4725 3400 4300 
Q 3400 3875 3450 3325 
Q 3500 2775 4162 1662 
Q 4825 550 6100 0 
Q 5800 -300 5700 -500 
Q 3950 350 3200 2575 
Q 2700 600 775 -575 
Q 625 -375 350 -150 
z
" id="SimHei-4eba" transform="scale(0.015625)"/>
      <path d="M 1200 2425 
L 2025 2425 
L 2025 1600 
L 1200 1600 
L 1200 2425 
z
M 1200 825 
L 2025 825 
L 2025 0 
L 1200 0 
L 1200 825 
z
" id="SimHei-ff1a" transform="scale(0.015625)"/>
      <path d="M 2900 2425 
L 1150 2425 
Q 650 2425 275 2400 
L 275 2900 
Q 650 2875 1150 2875 
L 2900 2875 
L 2900 4450 
L 1675 4450 
Q 1225 4450 900 4425 
L 900 4925 
Q 1225 4900 1675 4900 
L 4525 4900 
Q 4950 4900 5375 4925 
L 5375 4425 
Q 4950 4450 4525 4450 
L 3425 4450 
L 3425 2875 
L 5050 2875 
Q 5600 2875 6050 2900 
L 6050 2400 
Q 5650 2425 5050 2425 
L 3425 2425 
L 3425 125 
Q 3425 -325 3125 -412 
Q 2825 -500 2250 -525 
Q 2225 -200 2050 150 
Q 2450 100 2675 112 
Q 2900 125 2900 325 
L 2900 2425 
z
" id="SimHei-4e8e" transform="scale(0.015625)"/>
      <path d="M 1125 4425 
Q 1125 4750 1100 5075 
L 1625 5075 
Q 1575 4775 1575 4425 
L 1575 3800 
Q 1800 3800 2100 3825 
L 2100 3350 
Q 1800 3375 1575 3375 
L 1575 2700 
Q 1750 2775 1950 2925 
Q 2150 2575 2375 2250 
Q 2150 2125 2000 1975 
Q 1825 2300 1575 2650 
L 1575 300 
Q 1575 -200 1625 -525 
L 1100 -525 
Q 1125 -175 1125 300 
L 1125 2075 
Q 800 1325 575 900 
Q 375 1125 200 1275 
Q 450 1600 675 2075 
Q 900 2550 1100 3375 
Q 625 3375 325 3350 
L 325 3825 
Q 625 3800 1125 3800 
L 1125 4425 
z
M 1825 1175 
Q 2150 1550 2425 2137 
Q 2700 2725 2850 3375 
Q 2675 3375 2375 3350 
L 2375 3825 
Q 2650 3800 2875 3800 
L 2875 4450 
Q 2875 4800 2850 5075 
L 3350 5075 
Q 3325 4800 3325 4450 
L 3325 3800 
Q 3575 3800 3875 3825 
L 3875 3350 
Q 3600 3375 3325 3375 
L 3325 2700 
Q 3450 2775 3600 2900 
Q 3900 2475 4125 2150 
Q 3925 2025 3725 1850 
Q 3575 2175 3325 2525 
L 3325 325 
Q 3325 -75 3350 -400 
L 2850 -400 
Q 2875 -100 2875 325 
L 2875 2250 
Q 2600 1500 2150 775 
Q 2025 1000 1825 1175 
z
M 6125 1400 
Q 5900 1225 5637 887 
Q 5375 550 4875 87 
Q 4375 -375 3925 -675 
Q 3725 -450 3475 -300 
Q 3975 -100 4562 425 
Q 5150 950 5625 1750 
Q 5850 1575 6125 1400 
z
M 5975 3000 
Q 5750 2850 5375 2375 
Q 5000 1900 4250 1250 
Q 4075 1500 3875 1600 
Q 4400 1950 4800 2375 
Q 5200 2800 5475 3350 
Q 5700 3175 5975 3000 
z
M 5725 4700 
Q 5525 4575 5150 4050 
Q 4775 3525 4400 3100 
Q 4200 3275 3975 3400 
Q 4275 3625 4625 4100 
Q 4975 4575 5200 5025 
Q 5475 4825 5725 4700 
z
" id="SimHei-5f6c" transform="scale(0.015625)"/>
      <path d="M 1775 2825 
Q 1800 3050 1800 3200 
L 1800 3400 
Q 1425 3100 800 2700 
Q 700 2950 425 3175 
Q 975 3350 1512 3762 
Q 2050 4175 2325 4700 
L 1600 4700 
Q 1200 4700 725 4675 
L 725 5050 
Q 1125 5025 1575 5025 
L 4950 5025 
Q 5325 5025 5775 5050 
L 5775 4675 
Q 5350 4700 4950 4700 
L 2950 4700 
Q 2750 4425 2500 4100 
L 5075 4100 
Q 5050 3750 5050 3475 
Q 5050 3225 5075 2825 
L 1775 2825 
z
M 5375 2275 
Q 5750 2275 6100 2300 
L 6100 1875 
Q 5700 1925 5375 1925 
L 4600 1925 
Q 4475 1625 4350 1275 
L 5800 1275 
Q 5775 975 5775 675 
L 5775 125 
Q 5775 -125 5800 -575 
L 5300 -575 
L 5300 -175 
L 4200 -175 
L 4200 -600 
L 3700 -600 
Q 3725 -150 3725 75 
L 3725 500 
L 3325 100 
Q 3175 400 2950 600 
Q 3400 750 3675 1150 
Q 3950 1550 4075 1925 
Q 3725 1925 3350 1875 
L 3350 2300 
Q 3725 2275 4150 2275 
L 5375 2275 
z
M 2150 2275 
Q 2675 2275 3025 2300 
L 3025 1875 
Q 2675 1925 2150 1925 
L 1900 1925 
L 1600 1275 
L 2875 1275 
Q 2850 900 2850 600 
L 2850 175 
Q 2850 -100 2875 -575 
L 2375 -575 
L 2375 -175 
L 1425 -175 
L 1425 -650 
L 925 -650 
Q 975 -200 975 100 
L 975 450 
Q 800 250 575 50 
Q 400 275 200 500 
Q 575 675 875 1037 
Q 1175 1400 1375 1925 
Q 900 1925 400 1875 
L 400 2300 
Q 900 2275 1225 2275 
L 2150 2275 
z
M 4600 3150 
L 4600 3775 
L 2250 3775 
L 2250 3150 
L 4600 3150 
z
M 5300 150 
L 5300 925 
L 4200 925 
L 4200 150 
L 5300 150 
z
M 2375 150 
L 2375 925 
L 1425 925 
L 1425 150 
L 2375 150 
z
" id="SimHei-78ca" transform="scale(0.015625)"/>
      <path d="M 1000 5100 
Q 2500 3875 2500 2500 
Q 2550 825 1025 -275 
L 750 50 
Q 2075 1025 2100 2350 
Q 2150 3725 725 4775 
L 1000 5100 
z
" id="SimHei-ff09" transform="scale(0.015625)"/>
     </defs>
     <use xlink:href="#SimHei-4f7f"/>
     <use x="100" xlink:href="#SimHei-7528"/>
     <use x="200" xlink:href="#SimHei-20"/>
     <use x="250" xlink:href="#SimHei-6d"/>
     <use x="300" xlink:href="#SimHei-61"/>
     <use x="350" xlink:href="#SimHei-74"/>
     <use x="400" xlink:href="#SimHei-70"/>
     <use x="450" xlink:href="#SimHei-6c"/>
     <use x="500" xlink:href="#SimHei-6f"/>
     <use x="550" xlink:href="#SimHei-74"/>
     <use x="600" xlink:href="#SimHei-6c"/>
     <use x="650" xlink:href="#SimHei-69"/>
     <use x="700" xlink:href="#SimHei-62"/>
     <use x="750" xlink:href="#SimHei-7ed8"/>
     <use x="850" xlink:href="#SimHei-56fe"/>
     <use x="950" xlink:href="#SimHei-ff08"/>
     <use x="1050" xlink:href="#SimHei-5236"/>
     <use x="1150" xlink:href="#SimHei-56fe"/>
     <use x="1250" xlink:href="#SimHei-4eba"/>
     <use x="1350" xlink:href="#SimHei-ff1a"/>
     <use x="1450" xlink:href="#SimHei-4e8e"/>
     <use x="1550" xlink:href="#SimHei-5f6c"/>
     <use x="1650" xlink:href="#SimHei-78ca"/>
     <use x="1750" xlink:href="#SimHei-ff09"/>
    </g>
   </g>
   <g id="legend_1">
    <g id="patch_7">
     <path d="M 64.6 76.81575 
L 181.6 76.81575 
Q 183.6 76.81575 183.6 74.81575 
L 183.6 48.472 
Q 183.6 46.472 181.6 46.472 
L 64.6 46.472 
Q 62.6 46.472 62.6 48.472 
L 62.6 74.81575 
Q 62.6 76.81575 64.6 76.81575 
z
" style="fill:#ffffff;opacity:0.8;stroke:#cccccc;stroke-linejoin:miter;"/>
    </g>
    <g id="line2d_18">
     <path d="M 66.6 54.276688 
L 86.6 54.276688 
" style="fill:none;stroke:#0000ff;stroke-linecap:square;"/>
    </g>
    <g id="line2d_19"/>
    <g id="text_19">
     <!-- cos(X) -->
     <g transform="translate(94.6 57.776688)scale(0.1 -0.1)">
      <defs>
       <path d="M 2850 1250 
Q 2850 725 2487 400 
Q 2125 75 1575 75 
Q 1025 75 625 462 
Q 225 850 225 1525 
Q 225 2200 625 2587 
Q 1025 2975 1575 2975 
Q 2125 2975 2450 2687 
Q 2775 2400 2775 2000 
L 2225 2000 
Q 2200 2300 2012 2412 
Q 1825 2525 1575 2525 
Q 1275 2525 1025 2287 
Q 775 2050 775 1525 
Q 775 1000 1025 762 
Q 1275 525 1575 525 
Q 1900 525 2100 700 
Q 2300 875 2300 1250 
L 2850 1250 
z
" id="SimHei-63" transform="scale(0.015625)"/>
       <path d="M 2750 900 
Q 2750 500 2437 287 
Q 2125 75 1650 75 
Q 1050 75 725 312 
Q 400 550 400 1000 
L 900 1000 
Q 900 700 1112 600 
Q 1325 500 1625 500 
Q 1925 500 2075 612 
Q 2225 725 2225 900 
Q 2225 1025 2100 1150 
Q 1975 1275 1475 1350 
Q 900 1425 687 1637 
Q 475 1850 475 2200 
Q 475 2500 762 2737 
Q 1050 2975 1600 2975 
Q 2100 2975 2387 2750 
Q 2675 2525 2675 2150 
L 2175 2150 
Q 2175 2375 2012 2462 
Q 1850 2550 1600 2550 
Q 1275 2550 1137 2437 
Q 1000 2325 1000 2175 
Q 1000 2000 1125 1900 
Q 1250 1800 1650 1750 
Q 2300 1650 2525 1437 
Q 2750 1225 2750 900 
z
" id="SimHei-73" transform="scale(0.015625)"/>
       <path d="M 2975 -200 
L 2700 -475 
Q 2075 125 1762 775 
Q 1450 1425 1450 2250 
Q 1450 3075 1762 3725 
Q 2075 4375 2700 5000 
L 2975 4725 
Q 2400 4175 2112 3587 
Q 1825 3000 1825 2250 
Q 1825 1500 2112 912 
Q 2400 325 2975 -200 
z
" id="SimHei-28" transform="scale(0.015625)"/>
       <path d="M 1675 2250 
Q 1675 1425 1362 775 
Q 1050 125 425 -475 
L 150 -200 
Q 725 325 1012 912 
Q 1300 1500 1300 2250 
Q 1300 3000 1012 3587 
Q 725 4175 150 4725 
L 425 5000 
Q 1050 4375 1362 3725 
Q 1675 3075 1675 2250 
z
" id="SimHei-29" transform="scale(0.015625)"/>
      </defs>
      <use xlink:href="#SimHei-63"/>
      <use x="50" xlink:href="#SimHei-6f"/>
      <use x="100" xlink:href="#SimHei-73"/>
      <use x="150" xlink:href="#SimHei-28"/>
      <use x="200" xlink:href="#SimHei-58"/>
      <use x="250" xlink:href="#SimHei-29"/>
     </g>
    </g>
    <g id="line2d_20">
     <path d="M 66.6 68.06575 
L 86.6 68.06575 
" style="fill:none;stroke:#008000;stroke-dasharray:3.7,1.6;stroke-dashoffset:0;"/>
    </g>
    <g id="line2d_21"/>
    <g id="text_20">
     <!-- sin(cos(X^2)+X^3) -->
     <g transform="translate(94.6 71.56575)scale(0.1 -0.1)">
      <defs>
       <path d="M 2800 125 
L 2300 125 
L 2300 1925 
Q 2300 2225 2150 2400 
Q 2000 2575 1750 2575 
Q 1425 2575 1137 2237 
Q 850 1900 850 1400 
L 850 125 
L 350 125 
L 350 2925 
L 850 2925 
L 850 2400 
Q 1050 2675 1287 2825 
Q 1525 2975 1900 2975 
Q 2350 2975 2575 2725 
Q 2800 2475 2800 2100 
L 2800 125 
z
" id="SimHei-6e" transform="scale(0.015625)"/>
       <path d="M 2750 4125 
L 2300 4125 
L 1550 4750 
L 800 4125 
L 350 4125 
L 1250 5150 
L 1850 5150 
L 2750 4125 
z
" id="SimHei-5e" transform="scale(0.015625)"/>
       <path d="M 3000 2125 
L 1775 2125 
L 1775 900 
L 1350 900 
L 1350 2125 
L 125 2125 
L 125 2525 
L 1350 2525 
L 1350 3750 
L 1775 3750 
L 1775 2525 
L 3000 2525 
L 3000 2125 
z
" id="SimHei-2b" transform="scale(0.015625)"/>
      </defs>
      <use xlink:href="#SimHei-73"/>
      <use x="50" xlink:href="#SimHei-69"/>
      <use x="100" xlink:href="#SimHei-6e"/>
      <use x="150" xlink:href="#SimHei-28"/>
      <use x="200" xlink:href="#SimHei-63"/>
      <use x="250" xlink:href="#SimHei-6f"/>
      <use x="300" xlink:href="#SimHei-73"/>
      <use x="350" xlink:href="#SimHei-28"/>
      <use x="400" xlink:href="#SimHei-58"/>
      <use x="450" xlink:href="#SimHei-5e"/>
      <use x="500" xlink:href="#SimHei-32"/>
      <use x="550" xlink:href="#SimHei-29"/>
      <use x="600" xlink:href="#SimHei-2b"/>
      <use x="650" xlink:href="#SimHei-58"/>
      <use x="700" xlink:href="#SimHei-5e"/>
      <use x="750" xlink:href="#SimHei-33"/>
      <use x="800" xlink:href="#SimHei-29"/>
     </g>
    </g>
   </g>
  </g>
 </g>
 <defs>
  <clipPath id="pb2193c0236">
   <rect height="266.112" width="357.12" x="57.6" y="41.472"/>
  </clipPath>
 </defs>
</svg>
